<svg width="24" height="24" viewBox="0 0 21 16" xmlns="http://www.w3.org/2000/svg">
    <g fill="#fff" fill-rule="evenodd" opacity="1">
        <path d="M3.308 0c.46.04.923.061 1.38.124C6.321.35 7.815.896 8.992 2.107c.282.29.524.625.755.96a.857.857 0 0 1 .125.462c.006 3.85.005 7.7.004 11.55 0 .02-.005.04-.014.096-.067-.06-.12-.105-.17-.153-1.19-1.149-2.635-1.792-4.242-2.073-.727-.126-1.471-.157-2.21-.216-.495-.04-.788-.328-.788-.829-.002-3.687-.001-7.374 0-11.06 0-.461.17-.665.692-.844h.163zM17.766 0c.572.196.693.37.693.987v10.815c0 .643-.27.918-.912.93-1.484.03-2.922.275-4.28.898a7.093 7.093 0 0 0-2.017 1.365c-.057.056-.088.138-.13.208a50.108 50.108 0 0 1-.087-.054v-.232c0-3.674.01-7.347-.012-11.02-.003-.549.185-.965.512-1.368C12.566 1.261 13.932.57 15.502.255c.61-.123 1.24-.152 1.86-.223l.24-.032h.164z"/>
        <path d="M20.91 15.388c-.258.546-.494.665-1.085.538-1.818-.39-3.655-.583-5.513-.45-.723.053-1.44.18-2.161.273.091-.08.194-.178.305-.266a6.734 6.734 0 0 1 3.023-1.348c.726-.132 1.468-.193 2.205-.244.787-.054 1.375-.384 1.74-1.088.16-.31.194-.646.194-.99V2.638c.725-.09 1.04-.032 1.293.546v12.204zM1.293 2.607v.278c0 2.98.003 5.959-.002 8.938-.001.673.212 1.237.75 1.66.357.28.768.394 1.216.403.853.017 1.697.105 2.524.32 1.053.273 2.025.71 2.855 1.427.05.044.11.076.195.133-.703-.096-1.339-.205-1.98-.267a15.91 15.91 0 0 0-3.645.078c-.747.1-1.488.248-2.23.377-.585.102-.975-.217-.975-.81V3.43c0-.523.298-.82.822-.824.148-.002.297 0 .47 0"/>
    </g>
</svg>
